<?xml version="1.0" encoding="iso-8859-1"?>
<!-- Generator: Adobe Illustrator 19.0.0, SVG Export Plug-In . SVG Version: 6.00 Build 0)  -->
<svg version="1.1" id="Capa_1" xmlns="http://www.w3.org/2000/svg" xmlns:xlink="http://www.w3.org/1999/xlink" x="0px" y="0px"
	 viewBox="0 0 512 512" style="enable-background:new 0 0 512 512;" xml:space="preserve">
<g>
	<g>
		<path d="M512,96V53.333C512,11.146,393.385,0,330.667,0S149.333,11.146,149.333,53.333V96c0,28.669,6.867,55.704,18.764,79.829
			C69.848,193.582,0,256.267,0,329.021c0,48.366,31.176,106.389,174.227,117.174c-2.26,3.854-3.56,7.991-3.56,12.471
			c0,36.646,82.938,53.333,160,53.333s160-16.688,160-53.333c0-25.773-40.286-40.93-87.792-48.126
			C432.807,390.78,448,363.497,448,329.021c0-25.944-9.52-51.315-26.746-74.214l5.456-5.279C477.836,217.428,512,160.697,512,96z
			 M330.667,21.333c103.927,0,160,22.708,160,32c0,9.292-56.073,32-160,32s-160-22.708-160-32
			C170.667,44.042,226.74,21.333,330.667,21.333z M112.561,214.848c9.216-4.117,18.958-7.736,29.193-10.815
			c-6.555,11.46-12.738,23.772-18.441,35.332c-5.104,10.354-10.625,21.563-15.458,29.698
			C105.982,257.453,106.712,236.719,112.561,214.848z M21.333,329.021c0-39.719,25.5-76.049,66.715-101.328
			c-4.199,25.81-5.137,60.365,13.848,69.849c1.51,0.75,3.146,1.125,4.771,1.125c2.396,0,4.771-0.802,6.708-2.375
			c8.948-7.229,16.875-22.75,29.073-47.49c8.91-18.064,18.947-38.133,29.313-51.98c2.487-0.449,5.02-0.824,7.547-1.211
			c5.34,8.087,11.392,15.632,17.921,22.747c-3.747,19.708-14.023,85.626,12.949,100.34c1.604,0.875,3.354,1.302,5.104,1.302
			c2.542,0,5.063-0.906,7.052-2.667c9.448-8.332,18.488-26.799,29.319-50.578c28.552,27.454,44.48,44.763,47.014,85.922
			c1.194,19.398-1.198,38.044-4.682,53.986c-34.992,2.461-70.27,8.678-94.111,19.564C81.44,422.203,21.333,389.522,21.333,329.021z
			 M235.357,251.034c-6.806,15.042-13.69,30.074-19.586,40.07c-2.775-10.918-3.462-30.801,0.031-54.919
			c6.039,4.957,12.496,9.388,19.147,13.543l-0.46,0.47L235.357,251.034z M359.979,454.885c-13.479,3.792-45.146,3.792-58.625,0
			c7.115-17.188,21.406-58.031,18.604-103.521c-2.285-37.138-14.931-59.017-33.643-79.745c14.223,3.595,29.027,5.714,44.352,5.714
			c15.132,0,29.754-2.068,43.814-5.576c-18.428,20.866-30.859,43.04-33.105,79.607C338.573,396.854,352.865,437.698,359.979,454.885
			z M469.333,458.667c0,9.573-47.177,32-138.667,32S192,468.24,192,458.667c0-6.671,29.138-24.128,96.039-29.979
			c-4.842,15.171-9.495,25.038-9.602,25.25c-0.719,1.469-1.104,3.094-1.104,4.729c0,20.74,47.875,21.333,53.333,21.333
			c5.458,0,53.333-0.594,53.333-21.333c0-1.646-0.385-3.271-1.115-4.74c-0.102-0.214-4.768-10.063-9.617-25.242
			C440.19,434.534,469.333,451.995,469.333,458.667z M426.667,329.021c0,34.768-19.673,59.637-59.624,76.106
			c-3.297-15.59-5.535-33.604-4.376-52.449c2.398-39.039,17.719-57.974,43.181-82.949
			C419.242,288.332,426.667,308.56,426.667,329.021z M330.667,256c-88.229,0-160-71.771-160-160V80.371
			c37,20.172,113.681,26.296,160,26.296s123-6.124,160-26.296V96C490.667,184.229,418.896,256,330.667,256z"/>
	</g>
</g>
<g>
</g>
<g>
</g>
<g>
</g>
<g>
</g>
<g>
</g>
<g>
</g>
<g>
</g>
<g>
</g>
<g>
</g>
<g>
</g>
<g>
</g>
<g>
</g>
<g>
</g>
<g>
</g>
<g>
</g>
</svg>
